# xmcd
#
# Track frame offsets:
#	150
#	16846
#	33268
#	50142
#	64594
#	79156
#	94945
#	110276
#	125585
#	143136
#	157070
#	178174
#	192889
#
# Disc length: 2794 seconds
#
# Revision: 2
# Processed by: cddbd v1.5.2PL0 Copyright (c) Steve Scherf et al.
# Submitted via: audiograbber 1.83.01
#
DISCID=b00ae80d
DTITLE=Melinda Schneider - Be Yourself
DYEAR=2008
DGENRE=Country
TTITLE0=Be Yourself
TTITLE1=Courageous
TTITLE2=Cry A Little
TTITLE3=Grassy
TTITLE4=I'll Take Care Of You
TTITLE5=Safe
TTITLE6=People Don't Change
TTITLE7=Still Here (with Paul Kelly)
TTITLE8=Outside
TTITLE9=Bad Day
TTITLE10=Understanding
TTITLE11=Thank You
TTITLE12=Awake Now
EXTD=
EXTT0=
EXTT1=
EXTT2=
EXTT3=
EXTT4=
EXTT5=
EXTT6=
EXTT7=
EXTT8=
EXTT9=
EXTT10=
EXTT11=
EXTT12=
PLAYORDER=
